# xmcd
#
# Track frame offsets: 
#        150
#        13189
#        21089
#        36239
#        51576
#        62329
#        74477
#        87580
#        102997
#        115043
#        128014
#        141997
#        157632
#        171275
#        183929
#        196731
#        210345
#        224450
#        239386
#        249833
#        263136
#        278146
#        288769
#        303525
#        316703
#
# Disc length: 4406 seconds
#
# Revision: 0
# Processed by: cddbd v1.5.2PL0 Copyright (c) Steve Scherf et al.
# Submitted via: ExactAudioCopy v1.0b3
#
DISCID=60113419
DTITLE=Various Artist - Definitive Delta Blues [CD3]
DYEAR=2012
DGENRE=Blues
TTITLE0=Robert Johnson - Preaching Blues (Up Jumped The Devil)
TTITLE1=Son House - Am I Right Or Am I Wrong?
TTITLE2=Muddy Waters - You're Gonna Miss Me When I'm Gone
TTITLE3=Mississippi John Hurt - Frankie
TTITLE4=David 'Honeyboy' Edwards - Build A Cave
TTITLE5=Bukka White - Parchman Farm Blues
TTITLE6=Robert Lockwood Jr - Take A Little Walk With Me
TTITLE7=Ishman Bracey - Trouble Hearted Blues
TTITLE8=Big Joe Williams - She's A Married Woman
TTITLE9=Skip James - I'm So Glad
TTITLE10=Tommy McClennan - I Love My Baby
TTITLE11=John Lee Hooker - Landing Blues
TTITLE12=Papa Charlie McCoy - Last Time Blues
TTITLE13=Big Joe Williams - I'm Getting Wild About Her
TTITLE14=Sleepy John Estes - Special Agent Blues
TTITLE15=Bukka White - Shake Them Down
TTITLE16=Charley Patton - Shake It And Break It
TTITLE17=Freddie Spruell - Milk Cow Blues
TTITLE18=L.C. Green - Little School Girl
TTITLE19=Mississippi John Hurt - Ain't No Telling
TTITLE20=Blind Willie Johnson - Dark Was The Night - Cold Was The Grou
TTITLE20=nd
TTITLE21=Robert Johnson - Love In Vain
TTITLE22=Charley Patton - Moon Going Down
TTITLE23=Bukka White - Special Steam Lines
TTITLE24=Bo Carter - My Pencil Won't Write No More
EXTD=
EXTT0=
EXTT1=
EXTT2=
EXTT3=
EXTT4=
EXTT5=
EXTT6=
EXTT7=
EXTT8=
EXTT9=
EXTT10=
EXTT11=
EXTT12=
EXTT13=
EXTT14=
EXTT15=
EXTT16=
EXTT17=
EXTT18=
EXTT19=
EXTT20=
EXTT21=
EXTT22=
EXTT23=
EXTT24=
PLAYORDER=
